<svg width="176" height="84" viewBox="0 0 176 84" fill="none" xmlns="http://www.w3.org/2000/svg">
<path d="M27.5725 19.9374V0.912472C27.5725 0.51676 27.1401 0.276629 26.8092 0.488478L0.231007 17.4982C0.0871664 17.5902 0 17.7502 0 17.9221V43.7504C0 43.9239 0.0887585 44.0851 0.234723 44.1766L26.8128 60.8561C27.1441 61.0639 27.5725 60.8235 27.5725 60.4297V41.3855C27.5725 41.2177 27.4895 41.0611 27.3511 40.9679L12.1791 30.7552C11.8786 30.5529 11.8852 30.1049 12.1916 29.9116L27.3387 20.3633C27.484 20.2716 27.5725 20.1106 27.5725 19.9374Z" fill="#E93527" fill-opacity="0.69"/>
<path d="M27.5725 19.9374V0.912472C27.5725 0.51676 27.1401 0.276629 26.8092 0.488478L0.231007 17.4982C0.0871664 17.5902 0 17.7502 0 17.9221V43.7504C0 43.9239 0.0887585 44.0851 0.234723 44.1766L26.8128 60.8561C27.1441 61.0639 27.5725 60.8235 27.5725 60.4297V41.3855C27.5725 41.2177 27.4893 41.0611 27.3511 40.9679L12.1791 30.7552C11.8786 30.5529 11.8852 30.1049 12.1916 29.9116L27.3387 20.3633C27.484 20.2716 27.5725 20.1106 27.5725 19.9374Z" fill="#A3241B"/>
<path d="M27.5725 19.9367V0.912472C27.5725 0.51676 27.1401 0.276629 26.8092 0.488478L0.231007 17.4982C0.0871664 17.5903 0 17.7502 0 17.9221V37.7983C0 37.6248 0.0887585 37.4634 0.234723 37.3719L27.3377 20.3631C27.4837 20.2716 27.5725 20.1103 27.5725 19.9367Z" fill="#E93527"/>
<path d="M27.5725 19.9374V0.912472C27.5725 0.51676 27.1401 0.276629 26.8092 0.488478L0.231007 17.4982C0.0871664 17.5902 0 17.7502 0 17.9221V43.7504C0 43.9239 0.0887585 44.0851 0.234723 44.1766L26.8128 60.8561C27.1441 61.0639 27.5725 60.8235 27.5725 60.4297V41.3855C27.5725 41.2177 27.4895 41.0611 27.3511 40.9679L12.1791 30.7552C11.8786 30.5529 11.8852 30.1049 12.1916 29.9116L27.3387 20.3633C27.484 20.2716 27.5725 20.1106 27.5725 19.9374Z" fill="#E93527" fill-opacity="0.69"/>
<path d="M27.5725 19.9374V0.912472C27.5725 0.51676 27.1401 0.276629 26.8092 0.488478L0.231007 17.4982C0.0871664 17.5902 0 17.7502 0 17.9221V43.7504C0 43.9239 0.0887585 44.0851 0.234723 44.1766L26.8128 60.8561C27.1441 61.0639 27.5725 60.8235 27.5725 60.4297V41.3855C27.5725 41.2177 27.4893 41.0611 27.3511 40.9679L12.1791 30.7552C11.8786 30.5529 11.8852 30.1049 12.1916 29.9116L27.3387 20.3633C27.484 20.2716 27.5725 20.1106 27.5725 19.9374Z" fill="#A3241B"/>
<path d="M27.5725 19.9367V0.912472C27.5725 0.51676 27.1401 0.276629 26.8092 0.488478L0.231007 17.4982C0.0871664 17.5903 0 17.7502 0 17.9221V37.7983C0 37.6248 0.0887585 37.4634 0.234723 37.3719L27.3377 20.3631C27.4837 20.2716 27.5725 20.1103 27.5725 19.9367Z" fill="#E93527"/>
<path d="M27.5725 19.9374V0.912472C27.5725 0.51676 27.1401 0.276629 26.8092 0.488478L0.231007 17.4982C0.0871664 17.5902 0 17.7502 0 17.9221V43.7504C0 43.9239 0.0887585 44.0851 0.234723 44.1766L26.8128 60.8561C27.1441 61.0639 27.5725 60.8235 27.5725 60.4297V41.3855C27.5725 41.2177 27.4895 41.0611 27.3511 40.9679L12.1791 30.7552C11.8786 30.5529 11.8852 30.1049 12.1916 29.9116L27.3387 20.3633C27.484 20.2716 27.5725 20.1106 27.5725 19.9374Z" fill="#E93527" fill-opacity="0.69"/>
<path d="M27.5725 19.9374V0.912472C27.5725 0.51676 27.1401 0.276629 26.8092 0.488478L0.231007 17.4982C0.0871664 17.5902 0 17.7502 0 17.9221V43.7504C0 43.9239 0.0887585 44.0851 0.234723 44.1766L26.8128 60.8561C27.1441 61.0639 27.5725 60.8235 27.5725 60.4297V41.3855C27.5725 41.2177 27.4893 41.0611 27.3511 40.9679L12.1791 30.7552C11.8786 30.5529 11.8852 30.1049 12.1916 29.9116L27.3387 20.3633C27.484 20.2716 27.5725 20.1106 27.5725 19.9374Z" fill="#A8391D"/>
<path d="M27.5725 19.9367V0.912472C27.5725 0.51676 27.1401 0.276629 26.8092 0.488478L0.231007 17.4982C0.0871664 17.5903 0 17.7502 0 17.9221V37.7983C0 37.6248 0.0887585 37.4634 0.234723 37.3719L27.3377 20.3631C27.4837 20.2716 27.5725 20.1103 27.5725 19.9367Z" fill="#FC4314"/>
<path d="M35.7964 37.3709V28.2662C35.7964 27.8715 36.2268 27.6312 36.5579 27.841L62.4939 44.2786C62.6387 44.3705 62.7267 44.5311 62.7267 44.7038V60.6292C62.7267 60.8027 62.6379 60.964 62.492 61.0555L36.5561 77.3319C36.2248 77.5398 35.7964 77.2993 35.7964 76.9056V58.3324C35.7964 58.1644 35.8794 58.0078 36.0178 57.9146L50.8164 47.9534C51.1168 47.7511 51.1102 47.3029 50.8038 47.1098L36.0302 37.7967C35.8847 37.705 35.7964 37.544 35.7964 37.3709Z" fill="#E93527" fill-opacity="0.69"/>
<path d="M35.7964 37.3711V26.7819C35.7964 26.3828 36.2354 26.1432 36.566 26.362L62.502 43.5248C62.6422 43.6175 62.7267 43.7753 62.7267 43.9447V60.6294C62.7267 60.8029 62.6379 60.9642 62.492 61.0557L36.5561 77.3321C36.2248 77.54 35.7964 77.2995 35.7964 76.9058V58.3326C35.7964 58.1646 35.8794 58.008 36.0178 57.9148L50.8164 47.9536C51.1168 47.7513 51.1102 47.3031 50.8038 47.11L36.0302 37.7969C35.8847 37.7052 35.7964 37.5443 35.7964 37.3711Z" fill="#A8391D"/>
<path d="M35.7964 43.5616V25.0081C35.7964 24.6125 36.2288 24.3722 36.5597 24.5843L62.4957 41.1828C62.6395 41.275 62.7267 41.435 62.7267 41.6068V61.0202C62.7267 60.8467 62.6379 60.6853 62.492 60.5938L36.0311 43.9879C35.8852 43.8964 35.7964 43.7351 35.7964 43.5616Z" fill="#FC4314"/>
<path d="M35.7964 43.5616V25.0081C35.7964 24.6125 36.2288 24.3722 36.5597 24.5843L62.4957 41.1828C62.6395 41.275 62.7267 41.435 62.7267 41.6068V61.0202C62.7267 60.8467 62.6379 60.6853 62.492 60.5938L36.0311 43.9879C35.8852 43.8964 35.7964 43.7351 35.7964 43.5616Z" fill="#FC4314"/>
<path d="M41.5125 63.358L48.8989 58.3531C48.9353 58.328 48.9801 58.3247 49.0198 58.3414L51.9283 59.5746C52.0095 59.6098 52.0327 59.7135 51.9747 59.7804L36.4397 77.4305C36.3452 77.5376 36.1728 77.4322 36.2242 77.2983L41.4661 63.4199C41.476 63.3948 41.4926 63.373 41.5142 63.358H41.5125Z" fill="#A3241B"/>
<path d="M58.872 18.0367L50.9868 13.6191L38.1763 25.0596L58.872 18.0367Z" fill="#FFCDCA"/>
<path d="M58.7443 18.3748L36.4742 77.3438C36.4361 77.4425 36.3201 77.4844 36.2289 77.4308L27.593 72.2586C27.5184 72.2151 27.4902 72.1214 27.525 72.0428L49.7107 21.2044C49.7306 21.1609 49.767 21.1257 49.8118 21.1107L58.5322 18.1506C58.6681 18.1037 58.7957 18.2393 58.7443 18.3731V18.3748Z" fill="#FFB2AC"/>
<path d="M64.896 2.17529L54.3394 9.21489C54.3394 9.21489 58.794 17.8291 69.8943 6.88231L64.8977 2.17529H64.896Z" fill="white"/>
<path d="M41.5125 63.358L48.8989 58.3531C48.9353 58.328 48.9801 58.3247 49.0198 58.3414L51.9283 59.5746C52.0095 59.6098 52.0327 59.7135 51.9747 59.7804L36.4397 77.4305C36.3452 77.5376 36.1728 77.4322 36.2242 77.2983L41.4661 63.4199C41.476 63.3948 41.4926 63.373 41.5142 63.358H41.5125Z" fill="#A3241B"/>
<path d="M58.872 18.0367L50.9868 13.6191L38.1763 25.0595L58.872 18.0367Z" fill="#FFCDCA"/>
<path d="M58.7443 18.3746L36.4742 77.3436C36.4361 77.4423 36.3201 77.4841 36.2289 77.4306L27.593 72.2584C27.5184 72.2149 27.4902 72.1212 27.525 72.0425L49.7107 21.2041C49.7306 21.1606 49.767 21.1255 49.8118 21.1104L58.5322 18.1503C58.6681 18.1035 58.7957 18.239 58.7443 18.3729V18.3746Z" fill="#FFB2AC"/>
<path d="M64.896 2.17529L54.3394 9.21489C54.3394 9.21489 58.794 17.8291 69.8943 6.88231L64.8977 2.17529H64.896Z" fill="white"/>
<path d="M41.5125 63.358L48.8989 58.3531C48.9353 58.328 48.9801 58.3247 49.0198 58.3414L51.9283 59.5746C52.0095 59.6098 52.0327 59.7135 51.9747 59.7804L36.4397 77.4305C36.3452 77.5376 36.1728 77.4322 36.2242 77.2983L41.4661 63.4199C41.476 63.3948 41.4926 63.373 41.5142 63.358H41.5125Z" fill="#A8391D"/>
<path d="M58.872 18.0367L50.9868 13.6191L38.1763 25.0595L58.872 18.0367Z" fill="#FFD5CA"/>
<path d="M58.7443 18.3746L36.4742 77.3436C36.4361 77.4423 36.3201 77.4841 36.2289 77.4306L27.593 72.2584C27.5184 72.2149 27.4902 72.1212 27.525 72.0425L49.7107 21.2041C49.7306 21.1606 49.767 21.1255 49.8118 21.1104L58.5322 18.1503C58.6681 18.1035 58.7957 18.239 58.7443 18.3729V18.3746Z" fill="#FFBFAE"/>
<path d="M64.896 2.17529L54.3394 9.21489C54.3394 9.21489 58.794 17.8291 69.8943 6.88231L64.8977 2.17529H64.896Z" fill="#FC4314"/>
<path d="M83.5488 60.2392V23.9284H90.2275V54.5332H109.031V60.2392H83.5488ZM130.639 60.2392V54.6369L130.28 53.4439V43.64C130.28 41.7379 129.715 40.2682 128.584 39.2308C127.454 38.1587 125.742 37.6227 123.447 37.6227C121.906 37.6227 120.382 37.8649 118.875 38.349C117.402 38.833 116.152 39.5074 115.124 40.372L112.607 35.6516C114.08 34.5104 115.826 33.6632 117.847 33.1098C119.902 32.522 122.026 32.228 124.218 32.228C128.191 32.228 131.256 33.1963 133.414 35.1329C135.606 37.0349 136.702 39.9916 136.702 44.0031V60.2392H130.639ZM122.008 60.6023C119.953 60.6023 118.155 60.2564 116.614 59.5648C115.073 58.8386 113.874 57.853 113.018 56.6081C112.196 55.3285 111.785 53.8935 111.785 52.3027C111.785 50.7465 112.145 49.3459 112.864 48.101C113.617 46.8561 114.833 45.8705 116.511 45.1443C118.19 44.418 120.416 44.0549 123.19 44.0549H131.153V48.3604H123.652C121.46 48.3604 119.988 48.7235 119.234 49.4497C118.481 50.1413 118.104 51.0059 118.104 52.0433C118.104 53.2191 118.566 54.1528 119.491 54.8444C120.416 55.536 121.7 55.8819 123.344 55.8819C124.92 55.8819 126.324 55.5188 127.557 54.7925C128.824 54.0663 129.732 52.9942 130.28 51.5765L131.359 55.4669C130.742 57.0922 129.629 58.3545 128.019 59.2536C126.444 60.1526 124.44 60.6023 122.008 60.6023ZM160.15 60.6023C157.821 60.6023 155.749 60.0835 153.934 59.0461C152.119 58.0086 150.68 56.4525 149.618 54.3776C148.591 52.268 148.077 49.6053 148.077 46.3892C148.077 43.1385 148.608 40.4757 149.67 38.4008C150.766 36.3259 152.221 34.787 154.037 33.7842C155.886 32.7467 157.924 32.228 160.15 32.228C162.856 32.228 165.236 32.8158 167.291 33.9917C169.381 35.1675 171.025 36.81 172.223 38.9196C173.456 41.0291 174.073 43.519 174.073 46.3892C174.073 49.2594 173.456 51.7493 172.223 53.8588C171.025 55.9684 169.381 57.6283 167.291 58.8386C165.236 60.0144 162.856 60.6023 160.15 60.6023ZM144.943 60.2392V21.7498H151.365V38.9714L150.851 46.3373L151.057 53.7032V60.2392H144.943ZM159.431 55.0519C160.972 55.0519 162.342 54.706 163.541 54.0145C164.774 53.3229 165.75 52.3199 166.469 51.0059C167.189 49.6918 167.548 48.1529 167.548 46.3892C167.548 44.5909 167.189 43.0521 166.469 41.7725C165.75 40.4585 164.774 39.4555 163.541 38.7639C162.342 38.0724 160.972 37.7265 159.431 37.7265C157.89 37.7265 156.503 38.0724 155.27 38.7639C154.037 39.4555 153.061 40.4585 152.341 41.7725C151.622 43.0521 151.262 44.5909 151.262 46.3892C151.262 48.1529 151.622 49.6918 152.341 51.0059C153.061 52.3199 154.037 53.3229 155.27 54.0145C156.503 54.706 157.89 55.0519 159.431 55.0519Z" fill="white"/>
</svg>
